<svg width="192" height="62" viewBox="0 0 192 62" fill="none" xmlns="http://www.w3.org/2000/svg">
<path d="M72.0287 38V17.6364H80.1821C81.6802 17.6364 82.9297 17.8584 83.9307 18.3026C84.9316 18.7467 85.684 19.3632 86.1878 20.152C86.6916 20.9342 86.9434 21.8357 86.9434 22.8565C86.9434 23.652 86.7844 24.3513 86.4662 24.9545C86.148 25.5511 85.7105 26.0417 85.1537 26.4261C84.6035 26.804 83.9738 27.0724 83.2645 27.2315V27.4304C84.04 27.4635 84.7659 27.6823 85.442 28.0866C86.1248 28.491 86.6783 29.0578 87.1025 29.7869C87.5268 30.5095 87.7389 31.3712 87.7389 32.3722C87.7389 33.4527 87.4704 34.4171 86.9335 35.2656C86.4032 36.1075 85.6177 36.7737 84.577 37.2642C83.5363 37.7547 82.2536 38 80.729 38H72.0287ZM76.3341 34.4801H79.844C81.0438 34.4801 81.9188 34.2514 82.469 33.794C83.0192 33.33 83.2943 32.7135 83.2943 31.9446C83.2943 31.3812 83.1584 30.884 82.8866 30.4531C82.6149 30.0223 82.2271 29.6842 81.7233 29.4389C81.2261 29.1937 80.6328 29.071 79.9434 29.071H76.3341V34.4801ZM76.3341 26.1577H79.5258C80.1158 26.1577 80.6395 26.0549 81.0969 25.8494C81.5609 25.6373 81.9255 25.339 82.1906 24.9545C82.4624 24.5701 82.5983 24.1094 82.5983 23.5724C82.5983 22.8366 82.3364 22.2434 81.8128 21.7926C81.2957 21.3419 80.5599 21.1165 79.6054 21.1165H76.3341V26.1577ZM97.3614 38.2983C95.8169 38.2983 94.4812 37.9702 93.3543 37.3139C92.234 36.651 91.369 35.7296 90.7591 34.5497C90.1493 33.3632 89.8444 31.9877 89.8444 30.4233C89.8444 28.8456 90.1493 27.4669 90.7591 26.2869C91.369 25.1004 92.234 24.179 93.3543 23.5227C94.4812 22.8598 95.8169 22.5284 97.3614 22.5284C98.9059 22.5284 100.238 22.8598 101.359 23.5227C102.485 24.179 103.354 25.1004 103.964 26.2869C104.574 27.4669 104.878 28.8456 104.878 30.4233C104.878 31.9877 104.574 33.3632 103.964 34.5497C103.354 35.7296 102.485 36.651 101.359 37.3139C100.238 37.9702 98.9059 38.2983 97.3614 38.2983ZM97.3813 35.017C98.084 35.017 98.6706 34.8182 99.1412 34.4205C99.6119 34.0161 99.9665 33.4659 100.205 32.7699C100.45 32.0739 100.573 31.2817 100.573 30.3935C100.573 29.5052 100.45 28.7131 100.205 28.017C99.9665 27.321 99.6119 26.7708 99.1412 26.3665C98.6706 25.9621 98.084 25.7599 97.3813 25.7599C96.672 25.7599 96.0754 25.9621 95.5915 26.3665C95.1143 26.7708 94.753 27.321 94.5077 28.017C94.2691 28.7131 94.1498 29.5052 94.1498 30.3935C94.1498 31.2817 94.2691 32.0739 94.5077 32.7699C94.753 33.4659 95.1143 34.0161 95.5915 34.4205C96.0754 34.8182 96.672 35.017 97.3813 35.017ZM114.533 38.2983C112.989 38.2983 111.653 37.9702 110.526 37.3139C109.406 36.651 108.541 35.7296 107.931 34.5497C107.321 33.3632 107.016 31.9877 107.016 30.4233C107.016 28.8456 107.321 27.4669 107.931 26.2869C108.541 25.1004 109.406 24.179 110.526 23.5227C111.653 22.8598 112.989 22.5284 114.533 22.5284C116.078 22.5284 117.41 22.8598 118.53 23.5227C119.657 24.179 120.526 25.1004 121.136 26.2869C121.745 27.4669 122.05 28.8456 122.05 30.4233C122.05 31.9877 121.745 33.3632 121.136 34.5497C120.526 35.7296 119.657 36.651 118.53 37.3139C117.41 37.9702 116.078 38.2983 114.533 38.2983ZM114.553 35.017C115.256 35.017 115.842 34.8182 116.313 34.4205C116.784 34.0161 117.138 33.4659 117.377 32.7699C117.622 32.0739 117.745 31.2817 117.745 30.3935C117.745 29.5052 117.622 28.7131 117.377 28.017C117.138 27.321 116.784 26.7708 116.313 26.3665C115.842 25.9621 115.256 25.7599 114.553 25.7599C113.844 25.7599 113.247 25.9621 112.763 26.3665C112.286 26.7708 111.925 27.321 111.68 28.017C111.441 28.7131 111.322 29.5052 111.322 30.3935C111.322 31.2817 111.441 32.0739 111.68 32.7699C111.925 33.4659 112.286 34.0161 112.763 34.4205C113.247 34.8182 113.844 35.017 114.553 35.017ZM128.643 33.6051L128.653 28.5241H129.269L134.161 22.7273H139.023L132.451 30.4034H131.447L128.643 33.6051ZM124.805 38V17.6364H129.04V38H124.805ZM134.35 38L129.856 31.348L132.68 28.3551L139.312 38H134.35ZM141.181 38V17.6364H145.486V34.4503H154.217V38H141.181ZM156.988 38V22.7273H161.224V38H156.988ZM159.116 20.7585C158.486 20.7585 157.946 20.5497 157.495 20.1321C157.051 19.7079 156.829 19.2008 156.829 18.6108C156.829 18.0275 157.051 17.527 157.495 17.1094C157.946 16.6851 158.486 16.473 159.116 16.473C159.746 16.473 160.283 16.6851 160.727 17.1094C161.178 17.527 161.403 18.0275 161.403 18.6108C161.403 19.2008 161.178 19.7079 160.727 20.1321C160.283 20.5497 159.746 20.7585 159.116 20.7585ZM172.741 22.7273V25.9091H163.543V22.7273H172.741ZM165.631 19.0682H169.867V33.3068C169.867 33.6979 169.927 34.0028 170.046 34.2216C170.165 34.4337 170.331 34.5829 170.543 34.669C170.762 34.7552 171.014 34.7983 171.299 34.7983C171.498 34.7983 171.697 34.7817 171.896 34.7486C172.094 34.7088 172.247 34.679 172.353 34.6591L173.019 37.8111C172.807 37.8774 172.509 37.9536 172.124 38.0398C171.74 38.1326 171.272 38.1889 170.722 38.2088C169.701 38.2486 168.806 38.1127 168.038 37.8011C167.275 37.4896 166.682 37.0057 166.258 36.3494C165.833 35.6932 165.625 34.8646 165.631 33.8636V19.0682ZM182.296 38.2983C180.725 38.2983 179.373 37.9801 178.239 37.3438C177.112 36.7008 176.244 35.7926 175.634 34.6193C175.024 33.4394 174.719 32.044 174.719 30.4332C174.719 28.8622 175.024 27.4834 175.634 26.2969C176.244 25.1103 177.102 24.1856 178.209 23.5227C179.323 22.8598 180.629 22.5284 182.127 22.5284C183.135 22.5284 184.073 22.6908 184.941 23.0156C185.816 23.3338 186.578 23.8144 187.228 24.4574C187.884 25.1004 188.395 25.9091 188.759 26.8835C189.124 27.8513 189.306 28.9848 189.306 30.2841V31.4474H176.41V28.8224H185.319C185.319 28.2126 185.186 27.6723 184.921 27.2017C184.656 26.7311 184.288 26.3632 183.817 26.098C183.353 25.8262 182.813 25.6903 182.197 25.6903C181.554 25.6903 180.984 25.8395 180.486 26.1378C179.996 26.4295 179.611 26.8239 179.333 27.321C179.055 27.8116 178.912 28.3584 178.905 28.9616V31.4574C178.905 32.2131 179.045 32.866 179.323 33.4162C179.608 33.9664 180.009 34.3906 180.526 34.6889C181.043 34.9872 181.656 35.1364 182.366 35.1364C182.836 35.1364 183.267 35.0701 183.658 34.9375C184.049 34.8049 184.384 34.6061 184.663 34.3409C184.941 34.0758 185.153 33.7509 185.299 33.3665L189.217 33.625C189.018 34.5663 188.61 35.3883 187.994 36.0909C187.384 36.7869 186.595 37.3305 185.627 37.7216C184.666 38.1061 183.556 38.2983 182.296 38.2983Z" fill="black"/>
<path d="M0.0182693 13.9252L0.728162 10.0448C0.825576 9.51241 1.28913 9.12612 1.82938 9.12612C1.83162 9.12612 1.83275 9.12612 1.83498 9.12612C2.37804 9.12836 2.83991 9.51969 2.93285 10.0543L9.31906 46.8477L41.866 46.8488C42.6458 46.8488 43.3675 46.5263 43.8999 45.9413C44.5101 45.2689 44.85 44.2662 44.7682 43.4069C44.5297 41.336 43.0327 39.8322 41.2109 39.8322H14.0492C13.5034 39.8322 13.0365 39.4386 12.9458 38.8995L6.58699 1.30669C6.53213 0.981417 6.62282 0.648866 6.83613 0.396934C7.04831 0.145001 7.36127 0 7.69046 0H34.8309C41.0223 0 47.0664 5.03529 48.3053 11.2205L54.1043 39.6144C54.6261 42.9388 53.8165 46.0639 51.8246 48.4158C49.8684 50.7252 47.0003 51.9972 43.7482 51.9972L43.2297 51.9955C43.2197 51.9955 43.2102 51.9961 43.199 51.9961C41.4668 51.9978 8.33988 52 7.99446 52C6.74095 52 5.67276 51.102 5.45106 49.8407L0.0132334 14.2947C-0.00636135 14.1726 -0.00356487 14.0466 0.0182693 13.9252Z" fill="#4F46E5"/>
<path d="M13.2588 43H23.2588L26.2588 61L20.2588 56L16.2588 62L13.2588 43Z" fill="#3AB4BF"/>
</svg>
